<svg width="125" height="125" viewBox="0 0 125 125" fill="none" xmlns="http://www.w3.org/2000/svg">
<mask id="mask0_14_3" style="mask-type:luminance" maskUnits="userSpaceOnUse" x="0" y="0" width="125" height="125">
<path d="M125 62.5C125 27.9822 97.0178 0 62.5 0C27.9822 0 0 27.9822 0 62.5C0 97.0178 27.9822 125 62.5 125C97.0178 125 125 97.0178 125 62.5Z" fill="white"/>
</mask>
<g mask="url(#mask0_14_3)">
<path d="M27 38.75H52V106.5C52 108.6 52 109.65 51.5913 110.452C51.2318 111.158 50.658 111.732 49.9525 112.091C49.1502 112.5 48.1003 112.5 46 112.5H33C30.8997 112.5 29.8498 112.5 29.0475 112.091C28.342 111.732 27.7683 111.158 27.4088 110.452C27 109.65 27 108.6 27 106.5V38.75Z" fill="white"/>
<path d="M73.25 50H92.2125C94.348 50 95.416 50 96.2288 50.4222C96.9135 50.778 97.472 51.3365 97.8278 52.0213C98.25 52.834 98.25 53.902 98.25 56.0375V106.463C98.25 108.598 98.25 109.666 97.8278 110.479C97.472 111.164 96.9135 111.722 96.2288 112.078C95.416 112.5 94.348 112.5 92.2125 112.5H79.2875C77.152 112.5 76.084 112.5 75.2712 112.078C74.5865 111.722 74.028 111.164 73.6722 110.479C73.25 109.666 73.25 108.598 73.25 106.463V50Z" fill="white"/>
<path d="M53.25 50V75H72V50H53.25Z" fill="white"/>
<path d="M21.1 37.5C20.54 37.5 20.2599 37.5 20.046 37.391C19.8578 37.2952 19.7049 37.1422 19.609 36.954C19.5 36.74 19.5 36.46 19.5 35.9V32C19.5 31.3 19.5 30.95 19.6362 30.6825C19.7561 30.4473 19.9473 30.256 20.1825 30.1362C20.4499 30 20.7999 30 21.5 30H57.5C58.2 30 58.55 30 58.8175 30.1362C59.0527 30.256 59.244 30.4473 59.3638 30.6825C59.5 30.95 59.5 31.3 59.5 32V35.9C59.5 36.46 59.5 36.74 59.391 36.954C59.2952 37.1422 59.1423 37.2952 58.954 37.391C58.74 37.5 58.46 37.5 57.9 37.5H21.1Z" fill="white"/>
<path d="M27 18.5C27 16.3998 27 15.3497 27.4088 14.5475C27.7683 13.8419 28.342 13.2682 29.0475 12.9087C29.8498 12.5 30.8997 12.5 33 12.5H46C48.1003 12.5 49.1502 12.5 49.9525 12.9087C50.658 13.2682 51.2318 13.8419 51.5913 14.5475C52 15.3497 52 16.3998 52 18.5V28.75H27V18.5Z" fill="white"/>
</g>
</svg>
